# xmcd
#
# Track frame offsets: 
#        150
#        15006
#        47574
#        76907
#        101343
#        125280
#        148065
#        168841
#        191305
#        220420
#
# Disc length: 3305 seconds
#
# Revision: 0
# Processed by: cddbd v1.5.2PL0 Copyright (c) Steve Scherf et al.
# Submitted via: ExactAudioCopy v1.3
#
DISCID=720ce70a
DTITLE=Fred Chapellier and Tom Principato - Guitare On Fire
DYEAR=2012
DGENRE=Blues
TTITLE0=If Love Is Blind
TTITLE1=O.V. Wright
TTITLE2=Don't Wanna Do It
TTITLE3=My Love Comes Tumblin' Down
TTITLE4=Part Of Me
TTITLE5=Beer Drinking Woman
TTITLE6=Call The Law
TTITLE7=Night Work
TTITLE8=I Hear You Knockin'
TTITLE9=Done Your Daddy Dirty
EXTD=
EXTT0=
EXTT1=
EXTT2=
EXTT3=
EXTT4=
EXTT5=
EXTT6=
EXTT7=
EXTT8=
EXTT9=
PLAYORDER=
